{"title":"Matrix Reloaded DVDr Nl Subs Nlt Release By Zero Yuy","uid":4839293,"size":1336357077,"categoryP":"video","categoryS":"movies","magnet":"?xt=urn:btih:81ef767f52ba29fe382d4994325d04f48d4e889c&amp;dn=Matrix+Reloaded+DVDr+Nl+Subs+Nlt+Release+By+Zero+Yuy&amp;tr=udp%3A%2F%2Ftracker.openbittorrent.com%3A80&amp;tr=udp%3A%2F%2Fopen.demonii.com%3A1337&amp;tr=udp%3A%2F%2Ftracker.coppersurfer.tk%3A6969&amp;tr=udp%3A%2F%2Fexodus.desync.com%3A6969","seeders":1,"leechers":1,"uploader":"zeroyuy","files":-1,"time":1239443308,"description":"Brought to you by Nlt Release @\n &lt;a href=&quot;\nhttp://nlt.ons-forum.nl&quot; rel=&quot;nofollow&quot; target=&quot;_NEW&quot;&gt;\nhttp://nlt.ons-forum.nl&lt;/a&gt;\n\n &lt;a href=&quot;\nhttp://www.moviemeter.nl/film/1958&quot; rel=&quot;nofollow&quot; target=&quot;_NEW&quot;&gt;\nhttp://www.moviemeter.nl/film/1958&lt;/a&gt;\n\nVerenigde Staten\nActie / Science-Fiction\n138 minuten\n\ngeregisseerd door Andy Wachowski en Larry Wachowski\nmet Keanu Reeves, Laurence Fishburne en Carrie-Anne Moss\n\nDe machines hebben de locatie van Zion, de laatste menselijke stad, gevonden. De enige hoop voor de rebellen is The Keymaker, een man met toegang tot alle deuren naar de machinewereld. Hij wordt echter bewaakt door The Twins, een gedreadlocked duo dat kan verdwijnen en verschijnen als geesten. Agent Smith kan zich inmiddels als een virus in The Matrix vermenigvuldigen, wat de zoektocht voor Neo, Trinity en Morpheus bemoeilijkt.\n\nFile info:\n\nAlgemeen\nFormat : AVI\nFormat/Info : Audio Video Interleave\nFormat profile : OpenDML\nFile size : 1,24 GiB\nDuration : 2h 12mn\nOverall bit rate : 504 Kbps\nWriting application : Lavf51.12.1\n\nVideo\nFormat : xvid\nCodec ID : xvid\nDuration : 2h 12mn\nBit rate : 450 Kbps\nWidth : 720 pixels\nHeight : 576 pixels\nDisplay aspect ratio : 5/4\nFrame rate : 25,000 fps\nStandard : PAL\nResolution : 24 bits\nBits/(Pixel*Frame) : 0.043\nStream size : 1,11 GiB (89%)\n\nAudio\nFormat : MPEG Audio\nFormat version : Version 1\nFormat profile : Layer 3\nCodec ID : 55\nCodec ID/Hint : MP3\nDuration : 2h 12mn\nBit rate : 128 Kbps\nChannel(s) : 2 kanalen\nSampling rate : 48,0 KHz\nResolution : 16 bits\nStream size : 121 MiB (10%)\nInterleave, duration : 24 ms (0.60 video frames)\nInterleave, preload duration : 24 ms\nWriting library : LAME3.97","torrent":{"xt":"urn:btih:81ef767f52ba29fe382d4994325d04f48d4e889c","amp;dn":"Matrix+Reloaded+DVDr+Nl+Subs+Nlt+Release+By+Zero+Yuy","amp;tr":["udp%3A%2F%2Ftracker.openbittorrent.com%3A80","udp%3A%2F%2Fopen.demonii.com%3A1337","udp%3A%2F%2Ftracker.coppersurfer.tk%3A6969","udp%3A%2F%2Fexodus.desync.com%3A6969"],"infoHash":"81ef767f52ba29fe382d4994325d04f48d4e889c","infoHashBuffer":{"type":"Buffer","data":[129,239,118,127,82,186,41,254,56,45,73,148,50,93,4,244,141,78,136,156]},"announce":[],"urlList":[]}}